<?xml version="1.0" standalone="no"?>
<!DOCTYPE svg PUBLIC "-//W3C//DTD SVG 1.1//EN" "http://www.w3.org/Graphics/SVG/1.1/DTD/svg11.dtd">
<svg width="144.0mm" height="207.0mm"
 viewBox="0 0 144.0 207.0"
 xmlns="http://www.w3.org/2000/svg" version="1.1"
 xmlns:xlink="http://www.w3.org/1999/xlink">
<desc>Output from Flights of Ideas SVG Sketchup Plugin</desc>

  <g id="face0" fill="none" stroke="#FF0000" stroke-width="0" stroke-miterlimit="4" stroke-dasharray="none" stroke-linejoin="round" stroke-linecap="round">
    <line x1="1.0" y1="206.0" x2="143.0" y2="206.0"/>
    <line x1="143.0" y1="206.0" x2="143.0" y2="1.0"/>
    <line x1="143.0" y1="1.0" x2="1.0" y2="1.0"/>
    <line x1="1.0" y1="1.0" x2="1.0" y2="206.0"/>
    <line x1="65.6275204881645" y1="182.992301640286" x2="65.9917037300597" y2="182.841452002304"/>
    <line x1="65.9917037300597" y1="182.841452002304" x2="66.3825204881645" y2="182.790000000001"/>
    <line x1="66.3825204881645" y1="182.790000000001" x2="66.7733372462693" y2="182.841452002304"/>
    <line x1="66.7733372462693" y1="182.841452002304" x2="67.1375204881646" y2="182.992301640286"/>
    <line x1="67.1375204881646" y1="182.992301640286" x2="67.4502517277562" y2="183.232268760409"/>
    <line x1="67.4502517277562" y1="183.232268760409" x2="67.690218847879" y2="183.545000000001"/>
    <line x1="67.690218847879" y1="183.545000000001" x2="67.841068485861" y2="183.909183241896"/>
    <line x1="67.841068485861" y1="183.909183241896" x2="67.8925204881646" y2="184.300000000001"/>
    <line x1="67.8925204881646" y1="184.300000000001" x2="67.841068485861" y2="184.690816758106"/>
    <line x1="67.841068485861" y1="184.690816758106" x2="67.690218847879" y2="185.055000000001"/>
    <line x1="67.690218847879" y1="185.055000000001" x2="67.4502517277562" y2="185.367731239593"/>
    <line x1="67.4502517277562" y1="185.367731239593" x2="67.1375204881646" y2="185.607698359715"/>
    <line x1="67.1375204881646" y1="185.607698359715" x2="66.7733372462693" y2="185.758547997697"/>
    <line x1="66.7733372462693" y1="185.758547997697" x2="66.3825204881646" y2="185.810000000001"/>
    <line x1="66.3825204881646" y1="185.810000000001" x2="65.9917037300597" y2="185.758547997697"/>
    <line x1="65.9917037300597" y1="185.758547997697" x2="65.6275204881647" y2="185.607698359716"/>
    <line x1="65.6275204881647" y1="185.607698359716" x2="65.3147892485729" y2="185.367731239593"/>
    <line x1="65.3147892485729" y1="185.367731239593" x2="65.07482212845" y2="185.055000000001"/>
    <line x1="65.07482212845" y1="185.055000000001" x2="64.923972490468" y2="184.690816758106"/>
    <line x1="64.923972490468" y1="184.690816758106" x2="64.8725204881645" y2="184.300000000001"/>
    <line x1="64.8725204881645" y1="184.300000000001" x2="64.923972490468" y2="183.909183241896"/>
    <line x1="64.923972490468" y1="183.909183241896" x2="65.07482212845" y2="183.545000000001"/>
    <line x1="65.07482212845" y1="183.545000000001" x2="65.3147892485728" y2="183.232268760409"/>
    <line x1="65.3147892485728" y1="183.232268760409" x2="65.6275204881645" y2="182.992301640286"/>
    <line x1="61.1375204881653" y1="135.507698359715" x2="60.77333724627" y2="135.658547997697"/>
    <line x1="60.77333724627" y1="135.658547997697" x2="60.3825204881653" y2="135.710000000001"/>
    <line x1="60.3825204881653" y1="135.710000000001" x2="59.9917037300604" y2="135.658547997697"/>
    <line x1="59.9917037300604" y1="135.658547997697" x2="59.6275204881653" y2="135.507698359715"/>
    <line x1="59.6275204881653" y1="135.507698359715" x2="59.3147892485736" y2="135.267731239593"/>
    <line x1="59.3147892485736" y1="135.267731239593" x2="59.0748221284507" y2="134.955000000001"/>
    <line x1="59.0748221284507" y1="134.955000000001" x2="58.9239724904687" y2="134.590816758106"/>
    <line x1="58.9239724904687" y1="134.590816758106" x2="58.8725204881652" y2="134.200000000001"/>
    <line x1="58.8725204881652" y1="134.200000000001" x2="58.9239724904687" y2="133.809183241896"/>
    <line x1="58.9239724904687" y1="133.809183241896" x2="59.0748221284507" y2="133.445000000001"/>
    <line x1="59.0748221284507" y1="133.445000000001" x2="59.3147892485736" y2="133.132268760409"/>
    <line x1="59.3147892485736" y1="133.132268760409" x2="59.6275204881651" y2="132.892301640286"/>
    <line x1="59.6275204881651" y1="132.892301640286" x2="59.9917037300604" y2="132.741452002304"/>
    <line x1="59.9917037300604" y1="132.741452002304" x2="60.3825204881651" y2="132.690000000001"/>
    <line x1="60.3825204881651" y1="132.690000000001" x2="60.77333724627" y2="132.741452002304"/>
    <line x1="60.77333724627" y1="132.741452002304" x2="61.1375204881653" y2="132.892301640286"/>
    <line x1="61.1375204881653" y1="132.892301640286" x2="61.4502517277568" y2="133.132268760409"/>
    <line x1="61.4502517277568" y1="133.132268760409" x2="61.6902188478796" y2="133.445000000001"/>
    <line x1="61.6902188478796" y1="133.445000000001" x2="61.8410684858617" y2="133.809183241896"/>
    <line x1="61.8410684858617" y1="133.809183241896" x2="61.8925204881652" y2="134.200000000001"/>
    <line x1="61.8925204881652" y1="134.200000000001" x2="61.8410684858617" y2="134.590816758106"/>
    <line x1="61.8410684858617" y1="134.590816758106" x2="61.6902188478798" y2="134.955000000001"/>
    <line x1="61.6902188478798" y1="134.955000000001" x2="61.4502517277568" y2="135.267731239592"/>
    <line x1="61.4502517277568" y1="135.267731239592" x2="61.1375204881653" y2="135.507698359715"/>
    <line x1="32.5250217970491" y1="132.390021847263" x2="32.9155561263763" y2="132.443575414591"/>
    <line x1="32.9155561263763" y1="132.443575414591" x2="33.2789226379682" y2="132.59638191056"/>
    <line x1="33.2789226379682" y1="132.59638191056" x2="33.5903585045511" y2="132.838027824993"/>
    <line x1="33.5903585045511" y1="132.838027824993" x2="33.8286398864898" y2="133.152045388161"/>
    <line x1="33.8286398864898" y1="133.152045388161" x2="33.9775283013834" y2="133.517034822073"/>
    <line x1="33.9775283013834" y1="133.517034822073" x2="34.0268772498072" y2="133.90812269998"/>
    <line x1="34.0268772498072" y1="133.90812269998" x2="33.9733236824786" y2="134.298657029307"/>
    <line x1="33.9733236824786" y1="134.298657029307" x2="33.82051718651" y2="134.662023540899"/>
    <line x1="33.82051718651" y1="134.662023540899" x2="33.5788712720766" y2="134.973459407482"/>
    <line x1="33.5788712720766" y1="134.973459407482" x2="33.2648537089085" y2="135.211740789421"/>
    <line x1="33.2648537089085" y1="135.211740789421" x2="32.899864274997" y2="135.360629204315"/>
    <line x1="32.899864274997" y1="135.360629204315" x2="32.5087763970897" y2="135.409978152738"/>
    <line x1="32.5087763970897" y1="135.409978152738" x2="32.1182420677626" y2="135.35642458541"/>
    <line x1="32.1182420677626" y1="135.35642458541" x2="31.7548755561709" y2="135.203618089441"/>
    <line x1="31.7548755561709" y1="135.203618089441" x2="31.4434396895879" y2="134.961972175008"/>
    <line x1="31.4434396895879" y1="134.961972175008" x2="31.2051583076493" y2="134.647954611839"/>
    <line x1="31.2051583076493" y1="134.647954611839" x2="31.0562698927554" y2="134.282965177928"/>
    <line x1="31.0562698927554" y1="134.282965177928" x2="31.0069209443317" y2="133.891877300021"/>
    <line x1="31.0069209443317" y1="133.891877300021" x2="31.0604745116602" y2="133.501342970694"/>
    <line x1="31.0604745116602" y1="133.501342970694" x2="31.2132810076289" y2="133.137976459102"/>
    <line x1="31.2132810076289" y1="133.137976459102" x2="31.4549269220623" y2="132.826540592519"/>
    <line x1="31.4549269220623" y1="132.826540592519" x2="31.7689444852304" y2="132.58825921058"/>
    <line x1="31.7689444852304" y1="132.58825921058" x2="32.1339339191419" y2="132.439370795686"/>
    <line x1="32.1339339191419" y1="132.439370795686" x2="32.5250217970491" y2="132.390021847263"/>
    <line x1="19.5902188478793" y1="182.945" x2="19.7410684858612" y2="183.309183241895"/>
    <line x1="19.7410684858612" y1="183.309183241895" x2="19.7925204881647" y2="183.7"/>
    <line x1="19.7925204881647" y1="183.7" x2="19.7410684858612" y2="184.090816758105"/>
    <line x1="19.7410684858612" y1="184.090816758105" x2="19.5902188478793" y2="184.455"/>
    <line x1="19.5902188478793" y1="184.455" x2="19.3502517277565" y2="184.767731239592"/>
    <line x1="19.3502517277565" y1="184.767731239592" x2="19.0375204881647" y2="185.007698359715"/>
    <line x1="19.0375204881647" y1="185.007698359715" x2="18.6733372462694" y2="185.158547997697"/>
    <line x1="18.6733372462694" y1="185.158547997697" x2="18.2825204881648" y2="185.21"/>
    <line x1="18.2825204881648" y1="185.21" x2="17.8917037300598" y2="185.158547997697"/>
    <line x1="17.8917037300598" y1="185.158547997697" x2="17.5275204881646" y2="185.007698359715"/>
    <line x1="17.5275204881646" y1="185.007698359715" x2="17.214789248573" y2="184.767731239592"/>
    <line x1="17.214789248573" y1="184.767731239592" x2="16.97482212845" y2="184.455"/>
    <line x1="16.97482212845" y1="184.455" x2="16.8239724904681" y2="184.090816758105"/>
    <line x1="16.8239724904681" y1="184.090816758105" x2="16.7725204881646" y2="183.7"/>
    <line x1="16.7725204881646" y1="183.7" x2="16.8239724904681" y2="183.309183241895"/>
    <line x1="16.8239724904681" y1="183.309183241895" x2="16.97482212845" y2="182.945"/>
    <line x1="16.97482212845" y1="182.945" x2="17.2147892485729" y2="182.632268760408"/>
    <line x1="17.2147892485729" y1="182.632268760408" x2="17.5275204881646" y2="182.392301640286"/>
    <line x1="17.5275204881646" y1="182.392301640286" x2="17.8917037300598" y2="182.241452002304"/>
    <line x1="17.8917037300598" y1="182.241452002304" x2="18.2825204881646" y2="182.19"/>
    <line x1="18.2825204881646" y1="182.19" x2="18.6733372462694" y2="182.241452002304"/>
    <line x1="18.6733372462694" y1="182.241452002304" x2="19.0375204881647" y2="182.392301640286"/>
    <line x1="19.0375204881647" y1="182.392301640286" x2="19.3502517277565" y2="182.632268760408"/>
    <line x1="19.3502517277565" y1="182.632268760408" x2="19.5902188478793" y2="182.945"/>
    <line x1="140.0" y1="60.0000000000001" x2="137.0" y2="60.0000000000001"/>
    <line x1="137.0" y1="60.0000000000001" x2="137.0" y2="40.0000000000001"/>
    <line x1="137.0" y1="40.0000000000001" x2="140.0" y2="40.0000000000001"/>
    <line x1="140.0" y1="40.0000000000001" x2="140.0" y2="60.0000000000001"/>
    <line x1="107.0" y1="200.0" x2="107.0" y2="203.0"/>
    <line x1="107.0" y1="203.0" x2="87.0" y2="203.0"/>
    <line x1="87.0" y1="203.0" x2="87.0" y2="200.0"/>
    <line x1="87.0" y1="200.0" x2="107.0" y2="200.0"/>
    <line x1="41.8825204881642" y1="200.0" x2="51.8825204881645" y2="200.0"/>
    <line x1="51.8825204881645" y1="200.0" x2="51.8825204881645" y2="203.0"/>
    <line x1="51.8825204881645" y1="203.0" x2="41.8825204881642" y2="203.0"/>
    <line x1="41.8825204881642" y1="203.0" x2="41.8825204881642" y2="200.0"/>
    <line x1="112.099999938366" y1="156.199999876731" x2="101.900000061635" y2="156.199999876731"/>
    <line x1="101.900000061635" y1="156.199999876731" x2="101.900000061635" y2="153.199999876732"/>
    <line x1="101.900000061635" y1="153.199999876732" x2="112.099999938366" y2="153.199999876732"/>
    <line x1="112.099999938366" y1="153.199999876732" x2="112.099999938366" y2="156.199999876731"/>
    <line x1="117.0" y1="100.0" x2="127.0" y2="100.0"/>
    <line x1="127.0" y1="100.0" x2="127.0" y2="103.0"/>
    <line x1="127.0" y1="103.0" x2="117.0" y2="103.0"/>
    <line x1="117.0" y1="103.0" x2="117.0" y2="100.0"/>
    <line x1="6.99999999999989" y1="156.0" x2="7.00000000000011" y2="176.0"/>
    <line x1="7.00000000000011" y1="176.0" x2="4.00000000000011" y2="176.0"/>
    <line x1="4.00000000000011" y1="176.0" x2="4.00000000000011" y2="156.0"/>
    <line x1="4.00000000000011" y1="156.0" x2="6.99999999999989" y2="156.0"/>
    <line x1="27.0000000000001" y1="100.0" x2="27.0000000000001" y2="103.0"/>
    <line x1="27.0000000000001" y1="103.0" x2="17.0" y2="103.0"/>
    <line x1="17.0" y1="103.0" x2="17.0" y2="100.0"/>
    <line x1="17.0" y1="100.0" x2="27.0000000000001" y2="100.0"/>
    <line x1="77.0000000000001" y1="100.0" x2="77.0000000000001" y2="103.0"/>
    <line x1="77.0000000000001" y1="103.0" x2="67.0" y2="103.0"/>
    <line x1="67.0" y1="103.0" x2="67.0" y2="100.0"/>
    <line x1="67.0" y1="100.0" x2="77.0000000000001" y2="100.0"/>
    <line x1="127.0" y1="7.00000000000006" x2="107.0" y2="7.00000000000006"/>
    <line x1="107.0" y1="7.00000000000006" x2="107.0" y2="4.0"/>
    <line x1="107.0" y1="4.0" x2="127.0" y2="4.0"/>
    <line x1="127.0" y1="4.0" x2="127.0" y2="7.00000000000006"/>
    <line x1="37.0" y1="7.00000000000006" x2="17.0" y2="7.00000000000006"/>
    <line x1="17.0" y1="7.00000000000006" x2="17.0" y2="4.0"/>
    <line x1="17.0" y1="4.0" x2="37.0" y2="4.0"/>
    <line x1="37.0" y1="4.0" x2="37.0" y2="7.00000000000006"/>
    <line x1="4.00000000000011" y1="60.0000000000001" x2="4.00000000000011" y2="40.0000000000001"/>
    <line x1="4.00000000000011" y1="40.0000000000001" x2="7.00000000000011" y2="40.0000000000001"/>
    <line x1="7.00000000000011" y1="40.0000000000001" x2="7.00000000000011" y2="60.0000000000001"/>
    <line x1="7.00000000000011" y1="60.0000000000001" x2="4.00000000000011" y2="60.0000000000001"/>
    <line x1="48.112892089256" y1="45.1007449701258" x2="41.0418242773912" y2="52.1718127819923"/>
    <line x1="41.0418242773912" y1="52.1718127819923" x2="38.9205039338314" y2="50.050492438433"/>
    <line x1="38.9205039338314" y1="50.050492438433" x2="45.991571745696" y2="42.9794246265665"/>
    <line x1="45.991571745696" y1="42.9794246265665" x2="48.112892089256" y2="45.1007449701258"/>
    <line x1="76.3971633367144" y1="16.8164737226604" x2="69.3260955248498" y2="23.8875415345267"/>
    <line x1="69.3260955248498" y1="23.8875415345267" x2="67.2047751812896" y2="21.7662211909673"/>
    <line x1="67.2047751812896" y1="21.7662211909673" x2="74.2758429931544" y2="14.695153379101"/>
    <line x1="74.2758429931544" y1="14.695153379101" x2="76.3971633367144" y2="16.8164737226604"/>
    <line x1="5.88822856765375" y1="29.9488887394338" x2="5.50000000000011" y2="30.0000000000002"/>
    <line x1="5.50000000000011" y1="30.0000000000002" x2="5.11177143234625" y2="29.9488887394338"/>
    <line x1="5.11177143234625" y1="29.9488887394338" x2="4.75000000000011" y2="29.7990381056768"/>
    <line x1="4.75000000000011" y1="29.7990381056768" x2="4.43933982822011" y2="29.56066017178"/>
    <line x1="4.43933982822011" y1="29.56066017178" x2="4.20096189432331" y2="29.2500000000002"/>
    <line x1="4.20096189432331" y1="29.2500000000002" x2="4.05111126056636" y2="28.8882285676539"/>
    <line x1="4.05111126056636" y1="28.8882285676539" x2="4.00000000000011" y2="28.5000000000001"/>
    <line x1="4.00000000000011" y1="28.5000000000001" x2="4.05111126056636" y2="28.1117714323464"/>
    <line x1="4.05111126056636" y1="28.1117714323464" x2="4.20096189432331" y2="27.7500000000001"/>
    <line x1="4.20096189432331" y1="27.7500000000001" x2="4.43933982822011" y2="27.4393398282202"/>
    <line x1="4.43933982822011" y1="27.4393398282202" x2="4.75000000000011" y2="27.2009618943235"/>
    <line x1="4.75000000000011" y1="27.2009618943235" x2="5.11177143234625" y2="27.0511112605665"/>
    <line x1="5.11177143234625" y1="27.0511112605665" x2="5.50000000000011" y2="27.0000000000001"/>
    <line x1="5.50000000000011" y1="27.0000000000001" x2="5.88822856765375" y2="27.0511112605665"/>
    <line x1="5.88822856765375" y1="27.0511112605665" x2="6.25000000000011" y2="27.2009618943235"/>
    <line x1="6.25000000000011" y1="27.2009618943235" x2="6.56066017177989" y2="27.4393398282202"/>
    <line x1="6.56066017177989" y1="27.4393398282202" x2="6.79903810567669" y2="27.7500000000001"/>
    <line x1="6.79903810567669" y1="27.7500000000001" x2="6.94888873943364" y2="28.1117714323464"/>
    <line x1="6.94888873943364" y1="28.1117714323464" x2="7.00000000000011" y2="28.5000000000001"/>
    <line x1="7.00000000000011" y1="28.5000000000001" x2="6.94888873943364" y2="28.8882285676539"/>
    <line x1="6.94888873943364" y1="28.8882285676539" x2="6.79903810567669" y2="29.2500000000002"/>
    <line x1="6.79903810567669" y1="29.2500000000002" x2="6.56066017177989" y2="29.56066017178"/>
    <line x1="6.56066017177989" y1="29.56066017178" x2="6.25000000000011" y2="29.7990381056768"/>
    <line x1="6.25000000000011" y1="29.7990381056768" x2="5.88822856765375" y2="29.9488887394338"/>
    <line x1="70.5511112605665" y1="5.88822856765393" x2="70.4999999999999" y2="5.5"/>
    <line x1="70.4999999999999" y1="5.5" x2="70.5511112605665" y2="5.1117714323463"/>
    <line x1="70.5511112605665" y1="5.1117714323463" x2="70.7009618943233" y2="4.75000000000006"/>
    <line x1="70.7009618943233" y1="4.75000000000006" x2="70.9393398282201" y2="4.43933982822023"/>
    <line x1="70.9393398282201" y1="4.43933982822023" x2="71.2499999999999" y2="4.20096189432348"/>
    <line x1="71.2499999999999" y1="4.20096189432348" x2="71.6117714323462" y2="4.05111126056653"/>
    <line x1="71.6117714323462" y1="4.05111126056653" x2="71.9999999999999" y2="4.0"/>
    <line x1="71.9999999999999" y1="4.0" x2="72.3882285676539" y2="4.05111126056653"/>
    <line x1="72.3882285676539" y1="4.05111126056653" x2="72.75" y2="4.20096189432348"/>
    <line x1="72.75" y1="4.20096189432348" x2="73.0606601717798" y2="4.43933982822023"/>
    <line x1="73.0606601717798" y1="4.43933982822023" x2="73.2990381056767" y2="4.75"/>
    <line x1="73.2990381056767" y1="4.75" x2="73.4488887394336" y2="5.1117714323463"/>
    <line x1="73.4488887394336" y1="5.1117714323463" x2="73.5" y2="5.50000000000006"/>
    <line x1="73.5" y1="5.50000000000006" x2="73.4488887394336" y2="5.88822856765393"/>
    <line x1="73.4488887394336" y1="5.88822856765393" x2="73.2990381056767" y2="6.25000000000006"/>
    <line x1="73.2990381056767" y1="6.25000000000006" x2="73.0606601717798" y2="6.56066017177983"/>
    <line x1="73.0606601717798" y1="6.56066017177983" x2="72.75" y2="6.7990381056768"/>
    <line x1="72.75" y1="6.7990381056768" x2="72.3882285676539" y2="6.94888873943376"/>
    <line x1="72.3882285676539" y1="6.94888873943376" x2="71.9999999999999" y2="7.00000000000006"/>
    <line x1="71.9999999999999" y1="7.00000000000006" x2="71.6117714323462" y2="6.94888873943376"/>
    <line x1="71.6117714323462" y1="6.94888873943376" x2="71.2499999999999" y2="6.7990381056768"/>
    <line x1="71.2499999999999" y1="6.7990381056768" x2="70.9393398282201" y2="6.56066017177983"/>
    <line x1="70.9393398282201" y1="6.56066017177983" x2="70.7009618943233" y2="6.25000000000006"/>
    <line x1="70.7009618943233" y1="6.25000000000006" x2="70.5511112605665" y2="5.88822856765393"/>
    <line x1="138.888228567654" y1="29.9488887394338" x2="138.5" y2="30.0000000000002"/>
    <line x1="138.5" y1="30.0000000000002" x2="138.111771432346" y2="29.9488887394338"/>
    <line x1="138.111771432346" y1="29.9488887394338" x2="137.75" y2="29.7990381056768"/>
    <line x1="137.75" y1="29.7990381056768" x2="137.43933982822" y2="29.56066017178"/>
    <line x1="137.43933982822" y1="29.56066017178" x2="137.200961894323" y2="29.2500000000002"/>
    <line x1="137.200961894323" y1="29.2500000000002" x2="137.051111260566" y2="28.8882285676539"/>
    <line x1="137.051111260566" y1="28.8882285676539" x2="137.0" y2="28.5000000000001"/>
    <line x1="137.0" y1="28.5000000000001" x2="137.051111260566" y2="28.1117714323464"/>
    <line x1="137.051111260566" y1="28.1117714323464" x2="137.200961894323" y2="27.7500000000001"/>
    <line x1="137.200961894323" y1="27.7500000000001" x2="137.43933982822" y2="27.4393398282202"/>
    <line x1="137.43933982822" y1="27.4393398282202" x2="137.75" y2="27.2009618943235"/>
    <line x1="137.75" y1="27.2009618943235" x2="138.111771432346" y2="27.0511112605665"/>
    <line x1="138.111771432346" y1="27.0511112605665" x2="138.5" y2="27.0000000000001"/>
    <line x1="138.5" y1="27.0000000000001" x2="138.888228567654" y2="27.0511112605665"/>
    <line x1="138.888228567654" y1="27.0511112605665" x2="139.25" y2="27.2009618943235"/>
    <line x1="139.25" y1="27.2009618943235" x2="139.56066017178" y2="27.4393398282202"/>
    <line x1="139.56066017178" y1="27.4393398282202" x2="139.799038105677" y2="27.7500000000001"/>
    <line x1="139.799038105677" y1="27.7500000000001" x2="139.948888739434" y2="28.1117714323464"/>
    <line x1="139.948888739434" y1="28.1117714323464" x2="140.0" y2="28.5000000000001"/>
    <line x1="140.0" y1="28.5000000000001" x2="139.948888739434" y2="28.8882285676539"/>
    <line x1="139.948888739434" y1="28.8882285676539" x2="139.799038105677" y2="29.2500000000002"/>
    <line x1="139.799038105677" y1="29.2500000000002" x2="139.56066017178" y2="29.56066017178"/>
    <line x1="139.56066017178" y1="29.56066017178" x2="139.25" y2="29.7990381056768"/>
    <line x1="139.25" y1="29.7990381056768" x2="138.888228567654" y2="29.9488887394338"/>
    <line x1="138.888228567654" y1="115.948888739434" x2="138.5" y2="116.0"/>
    <line x1="138.5" y1="116.0" x2="138.111771432346" y2="115.948888739434"/>
    <line x1="138.111771432346" y1="115.948888739434" x2="137.75" y2="115.799038105677"/>
    <line x1="137.75" y1="115.799038105677" x2="137.43933982822" y2="115.56066017178"/>
    <line x1="137.43933982822" y1="115.56066017178" x2="137.200961894323" y2="115.25"/>
    <line x1="137.200961894323" y1="115.25" x2="137.051111260566" y2="114.888228567654"/>
    <line x1="137.051111260566" y1="114.888228567654" x2="137.0" y2="114.5"/>
    <line x1="137.0" y1="114.5" x2="137.051111260566" y2="114.111771432346"/>
    <line x1="137.051111260566" y1="114.111771432346" x2="137.200961894323" y2="113.75"/>
    <line x1="137.200961894323" y1="113.75" x2="137.43933982822" y2="113.43933982822"/>
    <line x1="137.43933982822" y1="113.43933982822" x2="137.75" y2="113.200961894323"/>
    <line x1="137.75" y1="113.200961894323" x2="138.111771432346" y2="113.051111260567"/>
    <line x1="138.111771432346" y1="113.051111260567" x2="138.5" y2="113.0"/>
    <line x1="138.5" y1="113.0" x2="138.888228567654" y2="113.051111260567"/>
    <line x1="138.888228567654" y1="113.051111260567" x2="139.25" y2="113.200961894324"/>
    <line x1="139.25" y1="113.200961894324" x2="139.56066017178" y2="113.43933982822"/>
    <line x1="139.56066017178" y1="113.43933982822" x2="139.799038105677" y2="113.75"/>
    <line x1="139.799038105677" y1="113.75" x2="139.948888739434" y2="114.111771432346"/>
    <line x1="139.948888739434" y1="114.111771432346" x2="140.0" y2="114.5"/>
    <line x1="140.0" y1="114.5" x2="139.948888739434" y2="114.888228567654"/>
    <line x1="139.948888739434" y1="114.888228567654" x2="139.799038105677" y2="115.25"/>
    <line x1="139.799038105677" y1="115.25" x2="139.56066017178" y2="115.56066017178"/>
    <line x1="139.56066017178" y1="115.56066017178" x2="139.25" y2="115.799038105677"/>
    <line x1="139.25" y1="115.799038105677" x2="138.888228567654" y2="115.948888739434"/>
    <line x1="124.051111260566" y1="201.888228567654" x2="124.0" y2="201.500000000001"/>
    <line x1="124.0" y1="201.500000000001" x2="124.051111260566" y2="201.111771432346"/>
    <line x1="124.051111260566" y1="201.111771432346" x2="124.200961894323" y2="200.75"/>
    <line x1="124.200961894323" y1="200.75" x2="124.43933982822" y2="200.439339828221"/>
    <line x1="124.43933982822" y1="200.439339828221" x2="124.75" y2="200.200961894323"/>
    <line x1="124.75" y1="200.200961894323" x2="125.111771432346" y2="200.051111260567"/>
    <line x1="125.111771432346" y1="200.051111260567" x2="125.5" y2="200.0"/>
    <line x1="125.5" y1="200.0" x2="125.888228567654" y2="200.051111260566"/>
    <line x1="125.888228567654" y1="200.051111260566" x2="126.25" y2="200.200961894324"/>
    <line x1="126.25" y1="200.200961894324" x2="126.56066017178" y2="200.43933982822"/>
    <line x1="126.56066017178" y1="200.43933982822" x2="126.799038105677" y2="200.75"/>
    <line x1="126.799038105677" y1="200.75" x2="126.948888739434" y2="201.111771432346"/>
    <line x1="126.948888739434" y1="201.111771432346" x2="127.0" y2="201.5"/>
    <line x1="127.0" y1="201.5" x2="126.948888739434" y2="201.888228567654"/>
    <line x1="126.948888739434" y1="201.888228567654" x2="126.799038105677" y2="202.25"/>
    <line x1="126.799038105677" y1="202.25" x2="126.56066017178" y2="202.56066017178"/>
    <line x1="126.56066017178" y1="202.56066017178" x2="126.25" y2="202.799038105677"/>
    <line x1="126.25" y1="202.799038105677" x2="125.888228567654" y2="202.948888739434"/>
    <line x1="125.888228567654" y1="202.948888739434" x2="125.5" y2="203.0"/>
    <line x1="125.5" y1="203.0" x2="125.111771432346" y2="202.948888739434"/>
    <line x1="125.111771432346" y1="202.948888739434" x2="124.75" y2="202.799038105677"/>
    <line x1="124.75" y1="202.799038105677" x2="124.43933982822" y2="202.56066017178"/>
    <line x1="124.43933982822" y1="202.56066017178" x2="124.200961894323" y2="202.250000000001"/>
    <line x1="124.200961894323" y1="202.250000000001" x2="124.051111260566" y2="201.888228567654"/>
    <line x1="5.11177143234625" y1="186.051111260567" x2="5.50000000000011" y2="186.0"/>
    <line x1="5.50000000000011" y1="186.0" x2="5.88822856765375" y2="186.051111260567"/>
    <line x1="5.88822856765375" y1="186.051111260567" x2="6.25000000000011" y2="186.200961894323"/>
    <line x1="6.25000000000011" y1="186.200961894323" x2="6.56066017177989" y2="186.43933982822"/>
    <line x1="6.56066017177989" y1="186.43933982822" x2="6.79903810567669" y2="186.75"/>
    <line x1="6.79903810567669" y1="186.75" x2="6.94888873943364" y2="187.111771432346"/>
    <line x1="6.94888873943364" y1="187.111771432346" x2="7.00000000000011" y2="187.5"/>
    <line x1="7.00000000000011" y1="187.5" x2="6.94888873943364" y2="187.888228567654"/>
    <line x1="6.94888873943364" y1="187.888228567654" x2="6.79903810567669" y2="188.25"/>
    <line x1="6.79903810567669" y1="188.25" x2="6.56066017177989" y2="188.56066017178"/>
    <line x1="6.56066017177989" y1="188.56066017178" x2="6.25000000000011" y2="188.799038105677"/>
    <line x1="6.25000000000011" y1="188.799038105677" x2="5.88822856765375" y2="188.948888739434"/>
    <line x1="5.88822856765375" y1="188.948888739434" x2="5.50000000000011" y2="189.0"/>
    <line x1="5.50000000000011" y1="189.0" x2="5.11177143234625" y2="188.948888739434"/>
    <line x1="5.11177143234625" y1="188.948888739434" x2="4.75000000000011" y2="188.799038105677"/>
    <line x1="4.75000000000011" y1="188.799038105677" x2="4.43933982822011" y2="188.56066017178"/>
    <line x1="4.43933982822011" y1="188.56066017178" x2="4.20096189432331" y2="188.25"/>
    <line x1="4.20096189432331" y1="188.25" x2="4.05111126056636" y2="187.888228567654"/>
    <line x1="4.05111126056636" y1="187.888228567654" x2="4.00000000000011" y2="187.5"/>
    <line x1="4.00000000000011" y1="187.5" x2="4.05111126056636" y2="187.111771432346"/>
    <line x1="4.05111126056636" y1="187.111771432346" x2="4.20096189432331" y2="186.75"/>
    <line x1="4.20096189432331" y1="186.75" x2="4.43933982822011" y2="186.43933982822"/>
    <line x1="4.43933982822011" y1="186.43933982822" x2="4.75000000000011" y2="186.200961894323"/>
    <line x1="4.75000000000011" y1="186.200961894323" x2="5.11177143234625" y2="186.051111260567"/>
    <line x1="5.88822856765375" y1="115.948888739434" x2="5.50000000000011" y2="116.0"/>
    <line x1="5.50000000000011" y1="116.0" x2="5.11177143234625" y2="115.948888739434"/>
    <line x1="5.11177143234625" y1="115.948888739434" x2="4.75000000000011" y2="115.799038105677"/>
    <line x1="4.75000000000011" y1="115.799038105677" x2="4.43933982822011" y2="115.56066017178"/>
    <line x1="4.43933982822011" y1="115.56066017178" x2="4.20096189432331" y2="115.25"/>
    <line x1="4.20096189432331" y1="115.25" x2="4.05111126056636" y2="114.888228567654"/>
    <line x1="4.05111126056636" y1="114.888228567654" x2="4.00000000000011" y2="114.5"/>
    <line x1="4.00000000000011" y1="114.5" x2="4.05111126056636" y2="114.111771432346"/>
    <line x1="4.05111126056636" y1="114.111771432346" x2="4.20096189432331" y2="113.75"/>
    <line x1="4.20096189432331" y1="113.75" x2="4.43933982822011" y2="113.43933982822"/>
    <line x1="4.43933982822011" y1="113.43933982822" x2="4.75000000000011" y2="113.200961894323"/>
    <line x1="4.75000000000011" y1="113.200961894323" x2="5.11177143234625" y2="113.051111260567"/>
    <line x1="5.11177143234625" y1="113.051111260567" x2="5.50000000000011" y2="113.0"/>
    <line x1="5.50000000000011" y1="113.0" x2="5.88822856765375" y2="113.051111260567"/>
    <line x1="5.88822856765375" y1="113.051111260567" x2="6.25000000000011" y2="113.200961894323"/>
    <line x1="6.25000000000011" y1="113.200961894323" x2="6.56066017177989" y2="113.43933982822"/>
    <line x1="6.56066017177989" y1="113.43933982822" x2="6.79903810567669" y2="113.75"/>
    <line x1="6.79903810567669" y1="113.75" x2="6.94888873943364" y2="114.111771432346"/>
    <line x1="6.94888873943364" y1="114.111771432346" x2="7.00000000000011" y2="114.5"/>
    <line x1="7.00000000000011" y1="114.5" x2="6.94888873943364" y2="114.888228567654"/>
    <line x1="6.94888873943364" y1="114.888228567654" x2="6.79903810567669" y2="115.25"/>
    <line x1="6.79903810567669" y1="115.25" x2="6.56066017177989" y2="115.56066017178"/>
    <line x1="6.56066017177989" y1="115.56066017178" x2="6.25000000000011" y2="115.799038105677"/>
    <line x1="6.25000000000011" y1="115.799038105677" x2="5.88822856765375" y2="115.948888739434"/>
    <line x1="120.488228741833" y1="130.151111100761" x2="120.850000169558" y2="130.300961745674"/>
    <line x1="120.850000169558" y1="130.300961745674" x2="121.160660333987" y2="130.539339689151"/>
    <line x1="121.160660333987" y1="130.539339689151" x2="121.399038258304" y2="130.849999868282"/>
    <line x1="121.399038258304" y1="130.849999868282" x2="121.548888880905" y2="131.211771305249"/>
    <line x1="121.548888880905" y1="131.211771305249" x2="121.600000129499" y2="131.599999874479"/>
    <line x1="121.600000129499" y1="131.599999874479" x2="121.54888885696" y2="131.988228440557"/>
    <line x1="121.54888885696" y1="131.988228440557" x2="121.399038212047" y2="132.349999868282"/>
    <line x1="121.399038212047" y1="132.349999868282" x2="121.16066026857" y2="132.660660032711"/>
    <line x1="121.16066026857" y1="132.660660032711" x2="120.850000089439" y2="132.899037957027"/>
    <line x1="120.850000089439" y1="132.899037957027" x2="120.488228652472" y2="133.048888579628"/>
    <line x1="120.488228652472" y1="133.048888579628" x2="120.100000083242" y2="133.099999828222"/>
    <line x1="120.100000083242" y1="133.099999828222" x2="119.711771517164" y2="133.048888555684"/>
    <line x1="119.711771517164" y1="133.048888555684" x2="119.350000089439" y2="132.899037910771"/>
    <line x1="119.350000089439" y1="132.899037910771" x2="119.03933992501" y2="132.660659967294"/>
    <line x1="119.03933992501" y1="132.660659967294" x2="118.800962000694" y2="132.349999788163"/>
    <line x1="118.800962000694" y1="132.349999788163" x2="118.651111378093" y2="131.988228351195"/>
    <line x1="118.651111378093" y1="131.988228351195" x2="118.600000129499" y2="131.599999781965"/>
    <line x1="118.600000129499" y1="131.599999781965" x2="118.651111402037" y2="131.211771215888"/>
    <line x1="118.651111402037" y1="131.211771215888" x2="118.800962046951" y2="130.849999788163"/>
    <line x1="118.800962046951" y1="130.849999788163" x2="119.039339990427" y2="130.539339623734"/>
    <line x1="119.039339990427" y1="130.539339623734" x2="119.350000169558" y2="130.300961699417"/>
    <line x1="119.350000169558" y1="130.300961699417" x2="119.711771606526" y2="130.151111076817"/>
    <line x1="119.711771606526" y1="130.151111076817" x2="120.100000175755" y2="130.099999828222"/>
    <line x1="120.100000175755" y1="130.099999828222" x2="120.488228741833" y2="130.151111100761"/>
    <line x1="92.6009630771816" y1="132.34999852073" x2="92.4511124434247" y2="131.988227088384"/>
    <line x1="92.4511124434247" y1="131.988227088384" x2="92.4000011828583" y2="131.59999852073"/>
    <line x1="92.4000011828583" y1="131.59999852073" x2="92.4511124434247" y2="131.211769953076"/>
    <line x1="92.4511124434247" y1="131.211769953076" x2="92.6009630771816" y2="130.84999852073"/>
    <line x1="92.6009630771816" y1="130.84999852073" x2="92.8393410110785" y2="130.53933834895"/>
    <line x1="92.8393410110785" y1="130.53933834895" x2="93.1500011828583" y2="130.300960415053"/>
    <line x1="93.1500011828583" y1="130.300960415053" x2="93.5117726152045" y2="130.151109781297"/>
    <line x1="93.5117726152045" y1="130.151109781297" x2="93.9000011828583" y2="130.09999852073"/>
    <line x1="93.9000011828583" y1="130.09999852073" x2="94.2882297505121" y2="130.151109781297"/>
    <line x1="94.2882297505121" y1="130.151109781297" x2="94.6500011828584" y2="130.300960415053"/>
    <line x1="94.6500011828584" y1="130.300960415053" x2="94.9606613546382" y2="130.53933834895"/>
    <line x1="94.9606613546382" y1="130.53933834895" x2="95.199039288535" y2="130.84999852073"/>
    <line x1="95.199039288535" y1="130.84999852073" x2="95.3488899222918" y2="131.211769953076"/>
    <line x1="95.3488899222918" y1="131.211769953076" x2="95.4000011828584" y2="131.59999852073"/>
    <line x1="95.4000011828584" y1="131.59999852073" x2="95.3488899222918" y2="131.988227088384"/>
    <line x1="95.3488899222918" y1="131.988227088384" x2="95.199039288535" y2="132.34999852073"/>
    <line x1="95.199039288535" y1="132.34999852073" x2="94.9606613546382" y2="132.66065869251"/>
    <line x1="94.9606613546382" y1="132.66065869251" x2="94.6500011828584" y2="132.899036626407"/>
    <line x1="94.6500011828584" y1="132.899036626407" x2="94.2882297505121" y2="133.048887260164"/>
    <line x1="94.2882297505121" y1="133.048887260164" x2="93.9000011828583" y2="133.09999852073"/>
    <line x1="93.9000011828583" y1="133.09999852073" x2="93.5117726152045" y2="133.048887260164"/>
    <line x1="93.5117726152045" y1="133.048887260164" x2="93.1500011828583" y2="132.899036626407"/>
    <line x1="93.1500011828583" y1="132.899036626407" x2="92.8393410110785" y2="132.66065869251"/>
    <line x1="92.8393410110785" y1="132.66065869251" x2="92.6009630771816" y2="132.34999852073"/>
    <line x1="140.0" y1="156.0" x2="140.0" y2="176.0"/>
    <line x1="140.0" y1="176.0" x2="137.0" y2="176.0"/>
    <line x1="137.0" y1="176.0" x2="137.0" y2="156.0"/>
    <line x1="137.0" y1="156.0" x2="140.0" y2="156.0"/>
  </g>
</svg>
